<svg xmlns="http://www.w3.org/2000/svg" xmlns:xlink="http://www.w3.org/1999/xlink" viewBox="0 0 168.5 177.31"><defs><style>.cls-1{fill:url(#linear-gradient);}.cls-2{fill:url(#linear-gradient-2);}.cls-3{fill:url(#linear-gradient-3);}.cls-4{fill:url(#linear-gradient-4);}.cls-5{fill:url(#linear-gradient-5);}</style><linearGradient id="linear-gradient" x1="116.55" y1="167.36" x2="103.6" y2="153.91" gradientUnits="userSpaceOnUse"><stop offset="0" stop-color="#050631"/><stop offset="1" stop-color="#110842"/></linearGradient><linearGradient id="linear-gradient-2" x1="72.24" y1="47.82" x2="14.72" y2="101.73" gradientUnits="userSpaceOnUse"><stop offset="0" stop-color="#4a09b2"/><stop offset="1" stop-color="#110842"/></linearGradient><linearGradient id="linear-gradient-3" x1="117.31" y1="52.01" x2="213.48" y2="36.9" gradientUnits="userSpaceOnUse"><stop offset="0" stop-color="#4209a2"/><stop offset="0.17" stop-color="#3e0999"/><stop offset="0.45" stop-color="#310982"/><stop offset="0.8" stop-color="#1e085b"/><stop offset="1" stop-color="#110842"/></linearGradient><linearGradient id="linear-gradient-4" x1="117.25" y1="60.86" x2="100.13" y2="7.49" gradientUnits="userSpaceOnUse"><stop offset="0" stop-color="#4a09b2"/><stop offset="0.22" stop-color="#5312b9"/><stop offset="0.56" stop-color="#6a29ce"/><stop offset="1" stop-color="#9050ef"/><stop offset="1" stop-color="#9050ef"/></linearGradient><linearGradient id="linear-gradient-5" x1="71.45" y1="54.99" x2="148.99" y2="130.51" gradientUnits="userSpaceOnUse"><stop offset="0" stop-color="#240868"/><stop offset="1" stop-color="#110842"/></linearGradient></defs><g id="Layer_2" data-name="Layer 2"><g id="Layer_1-2" data-name="Layer 1"><polygon class="cls-1" points="158.78 131.29 146.6 169.94 70.49 177.31 27.69 155 67.27 115.08 107.84 136.24 158.78 131.29"/><polygon class="cls-2" points="9.15 41.54 0 107.83 27.69 154.99 96.75 85.34 73.34 0 9.15 41.54"/><polygon class="cls-3" points="161.12 23.58 168.5 85.34 96.75 85.34 128.9 8.81 161.12 23.58"/><polygon class="cls-4" points="96.75 0 128.9 8.81 96.75 85.34 73.34 0 96.75 0"/><polygon class="cls-5" points="168.5 85.34 158.78 131.29 107.84 136.24 67.27 115.08 96.76 85.34 168.5 85.34"/></g></g></svg>