<svg xmlns="http://www.w3.org/2000/svg" xmlns:xlink="http://www.w3.org/1999/xlink" viewBox="0 0 1750.3 698.72"><defs><style>.cls-1{fill:url(#radial-gradient);}</style><radialGradient id="radial-gradient" cx="691.67" cy="181.73" r="652.11" gradientUnits="userSpaceOnUse"><stop offset="0" stop-color="#e853eb" stop-opacity="0.47"/><stop offset="1" stop-color="#1e0d75" stop-opacity="0.2"/></radialGradient></defs><g id="Layer_2" data-name="Layer 2"><g id="Layer_1-2" data-name="Layer 1"><path class="cls-1" d="M1253.26,215C928.62,112.86,866.89,56.86,616.46,22,394.69-8.91,303.66,1.62,303.6,2.17c0,.13,166.3,1.14,345.13,53.28,51.56,15,83.77,28.13,83,31.08C730.28,91.8,624.46,60.7,473.89,49.7c-47.65-3.49-96-4.68-96.23-2.38-.28,3.48,110.18,8.87,226.92,29.7C832.72,117.73,1006,203.33,1003.77,210.09c-2,6.13-153.38-39.4-155.64-32.08-.85,2.76,20.52,9.62,19.81,12.67-3,12.57-363.47-111.9-770.66-70.89C65.11,123,15.06,173.09,2.89,194.64c-39,69.06,329.93,285.2,333.19,281.57.65-.72-33.63-34.14-102.18-101-41.75-40.72-73.17-70.52-72.47-71.29,1.29-1.39,82,77.62,222.17,198.81,46.42,40.12,38.94,66.92,84.75,79.2,211.74,56.76,611.68-9.4,611.72-12.41,0-1.51-316.48,18.06-423.51,7.05-68.61-7.05-96.19-11.17-141.83-26.67-3.09-1,29.54-1.59,49.72,2.46,194.58,39.07,714.88-21.56,713.37-30.63-.61-3.61-87.81,7.29-268.51,18.22-191.94,11.61-313.93,9.76-325.13-4.35-9.11-11.49,470.29-1.45,638.78-49.05,119.34-33.72,199.23,104.88,212.59,109.64,167.16,59.56,64.15,107,120.47,102.17,54.11-4.67,130.59-169.16,74.85-282.76C1675.89,303.58,1575,316.3,1253.26,215Z"/></g></g></svg>