<svg xmlns="http://www.w3.org/2000/svg" xmlns:xlink="http://www.w3.org/1999/xlink" viewBox="0 0 829.95 437.89"><defs><style>.cls-1{fill:#030c37;}.cls-2{fill:url(#linear-gradient);}.cls-3{fill:url(#linear-gradient-2);}.cls-4{fill:url(#linear-gradient-3);}.cls-5{fill:url(#linear-gradient-4);}.cls-6{fill:url(#linear-gradient-5);}.cls-7{fill:url(#linear-gradient-6);}.cls-8{fill:url(#linear-gradient-7);}.cls-9{fill:url(#linear-gradient-8);}.cls-10{fill:url(#linear-gradient-9);}.cls-11{fill:url(#linear-gradient-10);}.cls-12{fill:url(#linear-gradient-11);}.cls-13{fill:url(#linear-gradient-12);}.cls-14{fill:url(#linear-gradient-13);}</style><linearGradient id="linear-gradient" x1="409.49" y1="98.53" x2="358.13" y2="164.99" gradientUnits="userSpaceOnUse"><stop offset="0" stop-color="#2e1a83"/><stop offset="1" stop-color="#221870"/></linearGradient><linearGradient id="linear-gradient-2" x1="420.39" y1="181.81" x2="363.95" y2="234.71" gradientUnits="userSpaceOnUse"><stop offset="0" stop-color="#111058"/><stop offset="1" stop-color="#151058"/></linearGradient><linearGradient id="linear-gradient-3" x1="409.38" y1="154.61" x2="813.4" y2="154.61" gradientUnits="userSpaceOnUse"><stop offset="0" stop-color="#4a09b2"/><stop offset="1" stop-color="#1e0d75"/></linearGradient><linearGradient id="linear-gradient-4" x1="445.37" y1="391.73" x2="422.21" y2="194.36" gradientUnits="userSpaceOnUse"><stop offset="0" stop-color="#0a0a40"/><stop offset="1" stop-color="#0b0e40"/></linearGradient><linearGradient id="linear-gradient-5" x1="558.05" y1="317.2" x2="466.42" y2="278.93" gradientUnits="userSpaceOnUse"><stop offset="0" stop-color="#120c54"/><stop offset="1" stop-color="#080b2c"/></linearGradient><linearGradient id="linear-gradient-6" x1="557.94" y1="250.55" x2="722.08" y2="382.46" gradientUnits="userSpaceOnUse"><stop offset="0" stop-color="#080736"/><stop offset="1" stop-color="#04092e"/></linearGradient><linearGradient id="linear-gradient-7" x1="795.45" y1="381.14" x2="660.03" y2="279.94" gradientUnits="userSpaceOnUse"><stop offset="0" stop-color="#050732"/><stop offset="1" stop-color="#06073c"/></linearGradient><linearGradient id="linear-gradient-8" x1="629.47" y1="471.85" x2="637.02" y2="394.06" gradientUnits="userSpaceOnUse"><stop offset="0" stop-color="#0f0e0e"/><stop offset="1" stop-color="#1e0d75"/></linearGradient><linearGradient id="linear-gradient-9" x1="257.02" y1="264.5" x2="364.27" y2="355.13" gradientUnits="userSpaceOnUse"><stop offset="0" stop-color="#4a09b2"/><stop offset="1" stop-color="#110842"/></linearGradient><linearGradient id="linear-gradient-10" x1="426.8" y1="392.21" x2="442.91" y2="466.73" gradientUnits="userSpaceOnUse"><stop offset="0" stop-color="#070e3e"/><stop offset="1" stop-color="#0f0e0e"/></linearGradient><linearGradient id="linear-gradient-11" x1="245.33" y1="356.37" x2="245.33" y2="473.43" xlink:href="#linear-gradient-10"/><linearGradient id="linear-gradient-12" x1="173.94" y1="337.42" x2="153.8" y2="329.36" gradientUnits="userSpaceOnUse"><stop offset="0" stop-color="#210b68"/><stop offset="1" stop-color="#2c0c80"/></linearGradient><linearGradient id="linear-gradient-13" x1="79.03" y1="415.53" x2="94.89" y2="373.99" gradientUnits="userSpaceOnUse"><stop offset="0" stop-color="#0f0e0e"/><stop offset="1" stop-color="#2c0c80"/></linearGradient></defs><g id="Layer_2" data-name="Layer 2"><g id="Layer_1-2" data-name="Layer 1"><polygon class="cls-1" points="621.17 87.61 691.99 0 822.9 35.83 829.95 233.01 571.53 144 605.39 88.61 621.17 87.61"/><polygon class="cls-2" points="345.19 103.15 336.04 209.85 388.88 163.03 432.8 146.96 409.38 61.62 345.19 103.15"/><polygon class="cls-3" points="361.01 270.27 336.04 209.85 388.88 163.03 432.8 146.96 407.83 244.59 361.01 270.27"/><polygon class="cls-4" points="517.77 61.62 409.38 61.62 432.8 146.96 513.57 202.3 592.11 247.62 708.42 221.18 813.4 238.55 813.4 157.74 662.35 99.59 517.77 61.62"/><polygon class="cls-5" points="370.07 352.59 419.92 289.15 407.83 244.59 432.8 146.96 477.98 177.92 469.01 298.22 517.77 406.22 443.92 416.79 370.07 352.59"/><polygon class="cls-6" points="577.76 416.79 517.77 406.22 469.01 298.22 477.98 177.92 551.14 223.98 543.78 251.39 577.76 416.79"/><polygon class="cls-7" points="634.41 416.79 577.76 416.79 543.78 251.39 551.14 223.98 592.11 247.62 708.42 221.18 708.42 312.57 634.41 416.79"/><polygon class="cls-8" points="728.06 350.83 634.41 416.79 708.42 312.57 708.42 221.18 813.4 238.55 813.4 355.87 781.38 332.97 728.06 350.83"/><polygon class="cls-9" points="781.38 332.97 728.06 350.83 634.41 416.79 577.76 416.79 452.14 437.89 813.4 437.89 813.4 355.87 781.38 332.97"/><polygon class="cls-10" points="179.75 346.55 298.32 281.87 361.01 270.27 407.83 244.59 419.92 289.15 370.07 352.59 349.68 382.05 288.5 351.08 179.75 346.55"/><polygon class="cls-11" points="370.07 352.59 349.68 382.05 291.02 437.89 452.14 437.89 577.76 416.79 517.77 406.22 443.92 416.79 370.07 352.59"/><polygon class="cls-12" points="140.98 437.89 148.03 372.99 179.75 346.55 288.5 351.08 349.68 382.05 291.02 437.89 140.98 437.89"/><polygon class="cls-13" points="248.89 308.84 134.94 297.35 50.35 346.55 158.92 363.91 179.75 346.55 248.89 308.84"/><polygon class="cls-14" points="50.35 346.55 0 437.89 140.98 437.89 148.03 372.99 158.92 363.91 50.35 346.55"/></g></g></svg>